<svg width="53" height="11" viewBox="0 0 53 11" fill="none" xmlns="http://www.w3.org/2000/svg">
    <path d="M11 5.5C11 8.53757 8.53757 11 5.5 11C2.46243 11 0 8.53757 0 5.5C0 2.46243 2.46243 0 5.5 0C8.53757 0 11 2.46243 11 5.5Z" fill="#35AB52"/>
    <path d="M32 5.5C32 8.53757 29.5376 11 26.5 11C23.4624 11 21 8.53757 21 5.5C21 2.46243 23.4624 0 26.5 0C29.5376 0 32 2.46243 32 5.5Z" fill="#35AB52"/>
    <path d="M53 5.5C53 8.53757 50.5376 11 47.5 11C44.4624 11 42 8.53757 42 5.5C42 2.46243 44.4624 0 47.5 0C50.5376 0 53 2.46243 53 5.5Z" fill="#35AB52"/>
</svg>
