<svg width="133" height="32" viewBox="0 0 133 32" fill="none" xmlns="http://www.w3.org/2000/svg">
    <path d="M130.066 5.2C131.466 5.2 132.6 6.33333 132.6 7.73333C132.6 9.13333 131.466 10.2667 130.066 10.2667C128.666 10.2667 127.533 9.13333 127.533 7.73333C127.466 6.4 128.666 5.2 130.066 5.2Z" stroke="#4D4D4F" stroke-width="0.3642" stroke-miterlimit="22.9256"/>
    <path fill-rule="evenodd" clip-rule="evenodd" d="M131.201 9.06666H130.334L129.934 8.13332H129.667V9.06666H128.867V6.53333H130.201C130.467 6.53333 130.734 6.59999 130.867 6.73333C131.001 6.86666 131.134 7.06666 131.134 7.26666C131.134 7.39999 131.134 7.53333 131.067 7.66666C131.001 7.79999 130.867 7.86666 130.734 7.93332L131.201 9.06666ZM129.734 7.53333H130.067C130.134 7.53333 130.267 7.53332 130.334 7.46666C130.401 7.39999 130.401 7.33332 130.401 7.26666C130.401 7.13332 130.334 6.99999 130.134 6.99999H129.801V7.53333H129.734Z" fill="#4D4D4F"/>
    <path d="M0 11.2L12.3333 0L24.7333 11.2V30.4667H0V11.2Z" fill="#638F3D"/>
    <path d="M16.0003 25.4667C15.4003 25.4667 14.867 24.9333 14.867 24.3333C14.867 23.7333 15.4003 23.2 16.0003 23.2C16.6003 23.2 17.1337 23.7333 17.1337 24.3333C17.1337 25 16.6003 25.4667 16.0003 25.4667ZM11.2003 10.9333C11.2003 10.3333 11.7337 9.8 12.3337 9.8C12.9337 9.8 13.467 10.3333 13.467 10.9333C13.467 11.5333 13.0003 12.0667 12.4003 12.0667H12.3337C11.667 12 11.2003 11.5333 11.2003 10.9333ZM8.86699 23.4C8.26699 23.4 7.73366 22.8667 7.73366 22.2667C7.73366 21.6667 8.26699 21.1333 8.86699 21.1333C9.46699 21.1333 10.0003 21.6667 10.0003 22.2667C10.0003 22.8667 9.46699 23.4 8.86699 23.4ZM8.73366 15.7333C8.13366 15.7333 7.60033 15.2 7.60033 14.6C7.60033 14 8.13366 13.4667 8.73366 13.4667C9.33366 13.4667 9.86699 14 9.86699 14.6C9.86699 15.2 9.33366 15.7333 8.73366 15.7333ZM15.9337 16.8C16.5337 16.8 17.067 17.3333 17.067 17.9333C17.067 18.5333 16.5337 19.0667 15.9337 19.0667C15.3337 19.0667 14.8003 18.5333 14.8003 17.9333C14.7337 17.3333 15.267 16.8 15.9337 16.8ZM16.0003 22.4667C14.9337 22.4667 14.067 23.3333 14.067 24.4C14.067 24.6 14.067 24.7333 14.1337 24.8667L12.8003 25.8667V20.6667L14.5337 19.3333C14.867 19.6667 15.3337 19.8667 15.867 19.8667C16.9337 19.8667 17.8003 19 17.8003 17.9333C17.8003 16.8667 16.9337 16 15.867 16C14.8003 16 13.9337 16.8667 13.9337 17.9333C13.9337 18.2667 14.0003 18.5333 14.1337 18.8L12.8003 19.8V12.7333C13.6003 12.5333 14.2003 11.8 14.2003 10.9333C14.2003 9.86667 13.3337 9 12.267 9C11.2003 9 10.3337 9.86667 10.3337 10.9333C10.3337 11.8 10.9337 12.5333 11.7337 12.7333V16.6L10.267 15.4667C10.4003 15.2 10.5337 14.8667 10.5337 14.5333C10.5337 13.4667 9.66699 12.6 8.60033 12.6C7.53366 12.6 6.66699 13.4667 6.66699 14.5333C6.66699 15.6 7.53366 16.4667 8.60033 16.4667C9.06699 16.4667 9.46699 16.2667 9.86699 16L11.7337 17.4V24L10.467 23.0667C10.6003 22.8 10.667 22.5333 10.667 22.2C10.667 21.1333 9.80033 20.2667 8.73366 20.2667C7.66699 20.2667 6.80033 21.1333 6.80033 22.2C6.80033 23.2667 7.66699 24.1333 8.73366 24.1333C9.26699 24.1333 9.66699 23.9333 10.067 23.6L11.7337 24.8667V30.4667H12.7337V26.6667L14.3337 25.4667C14.667 25.9333 15.267 26.2667 15.867 26.2667C16.9337 26.2667 17.8003 25.4 17.8003 24.3333C17.9337 23.3333 17.067 22.4667 16.0003 22.4667Z" fill="white"/>
    <path d="M122.8 16.6667V13H120.333C119.267 13 118.467 13.7333 118.467 14.8C118.467 15.8667 119.2 16.6667 120.333 16.6667H122.8ZM118.933 17.8C117.667 17.3333 116.867 16.2667 116.867 14.8667C116.867 13.0667 118.133 11.6 120.267 11.6H124.333V21.4667H122.667V18H120.467L118.133 21.4667H116.4V21.2L118.933 17.8ZM107.267 21.5333H106.667V11.6H108.333V15.2L108.2 18.2L114.2 11.5333H114.8V21.4H113.2V17.8L113.333 14.6667L107.267 21.5333ZM101.533 17.0667C102.667 17.0667 103.467 16.2 103.467 15.0667C103.467 13.9333 102.733 13.0667 101.533 13.0667H99.0668V17.1333H101.533V17.0667ZM97.4668 21.4667V11.6H101.533C103.733 11.6 105 13.2 105 15.0667C105 16.9333 103.667 18.4667 101.533 18.4667H99.0668V21.4H97.4668V21.4667ZM88.6668 13.0667V11.6H96.0001V13.0667H93.1335V21.4667H91.5335V13.0667H88.6668ZM87.4668 13.0667H83.1335V15.6667H87.2668V17.1333H83.1335V20H87.6001V21.4667H81.5335V11.6H87.5335V13.0667H87.4668ZM78.4001 11.6H79.0001V21.4667H77.3335V15.3333L74.4668 19H74.2668L71.4001 15.3333V21.5333H69.7335V11.6H70.3335L74.3335 16.7333L78.4001 11.6ZM62.8668 20.1333C64.7335 20.1333 66.2668 18.8667 66.2668 16.6C66.2668 14.3333 64.7335 13 62.8668 13C61.0001 13 59.4668 14.2667 59.4668 16.6C59.5335 18.8667 61.0001 20.1333 62.8668 20.1333ZM62.8668 21.6667C60.1335 21.6667 57.8668 19.8 57.8668 16.5333C57.8668 13.3333 60.2001 11.4 62.9335 11.4C65.6001 11.4 67.9335 13.2667 67.9335 16.5333C67.8668 19.5333 65.8001 21.6667 62.8668 21.6667ZM52.7335 13.0667V21.4667H51.0668V11.6H56.9335V13.0667H52.7335ZM44.7335 18.2L41.1335 11.8V11.6H42.9335L45.5335 16.5333H45.6001L47.9335 11.6H49.6668V11.8L45.8001 19.6C45.0001 21.3333 44.0001 22.2667 41.8668 21.4L42.0668 20.1333C43.0668 20.6 43.7335 20.2667 44.1335 19.3333L44.7335 18.2ZM33.0668 21.4667H31.4668V21.2667L35.8001 11.5333H36.5335L40.8668 21.2667V21.4667H39.2668L36.2001 14.2667L33.0668 21.4667Z" fill="#4D4D4F"/>
    <path d="M88.0665 28.9333V28.1333L87.1999 28.3333C86.3332 28.5333 85.5999 28.6667 85.5999 29.3333C85.5999 29.8667 85.9999 30.1333 86.6665 30.1333C87.4665 30.0667 88.0665 29.5333 88.0665 28.9333ZM88.4665 27.4V30.3333H88.0665V29.7333C87.7999 30.2 87.1999 30.4 86.5999 30.4C85.7999 30.4 85.1332 30.0667 85.1332 29.2667C85.1332 28.3333 86.0665 28.0667 87.0665 27.9333L87.9999 27.7333V27.4C87.9999 26.7333 87.5332 26.4 86.8665 26.4C86.3999 26.4 85.9999 26.5333 85.4665 27.1333L85.1999 26.8667C85.7332 26.2667 86.2665 26.0667 86.8665 26.0667C87.8665 26.1333 88.4665 26.6667 88.4665 27.4ZM83.3999 29.9333V26.5333H81.4665V27.6667C81.4665 29.0667 81.1999 29.6667 80.9332 29.9333H83.3999ZM80.0665 29.9333H80.4665C80.7999 29.6667 81.0665 29.0667 81.0665 27.6667V26.2H83.7999V29.9333H84.4665V31.3333H84.0665V30.2667H80.5332V31.3333H80.1332V29.9333H80.0665ZM76.0665 28.2667C76.0665 29.3333 76.6665 30.0667 77.5332 30.0667C78.4665 30.0667 79.0665 29.3333 79.0665 28.2667C79.0665 27.2 78.4665 26.4667 77.5332 26.4667C76.5999 26.4667 76.0665 27.2 76.0665 28.2667ZM79.4665 28.2667C79.4665 29.5333 78.6665 30.4 77.5332 30.4C76.3999 30.4 75.5999 29.5333 75.5999 28.2667C75.5999 27 76.3999 26.1333 77.5332 26.1333C78.6665 26.1333 79.4665 27 79.4665 28.2667ZM74.4665 28.2667C74.4665 27.2 73.9332 26.4667 73.1332 26.4667C72.2665 26.4667 71.6665 27.1333 71.6665 28.2667C71.6665 29.4 72.2665 30.0667 73.1332 30.0667C73.8665 30.0667 74.4665 29.3333 74.4665 28.2667ZM74.8665 28.2667C74.8665 29.5333 74.1332 30.4 73.0665 30.4C72.3999 30.4 71.8665 30.1333 71.5999 29.6V31.8667H71.1999V26.2H71.5999V27C71.8665 26.4 72.3999 26.0667 73.1332 26.0667C74.1332 26.1333 74.8665 27 74.8665 28.2667ZM69.8665 26.2V30.2667H69.4665V28.2667C69.4665 27.5333 69.4665 27.0667 69.4665 26.6C69.1332 27.0667 68.7332 27.6 68.3332 28.2667L66.9999 30.2H66.5999V26.1333H66.9999V28.3333C66.9999 28.8 66.9999 29.2 66.9999 29.7333C67.3332 29.2 67.6665 28.7333 68.1332 28.0667L69.5332 26.1333H69.8665V26.2ZM65.1332 28.2667C65.1332 27.2 64.5999 26.4667 63.7999 26.4667C62.9332 26.4667 62.3332 27.1333 62.3332 28.2667C62.3332 29.4 62.9332 30.0667 63.7999 30.0667C64.5999 30.0667 65.1332 29.3333 65.1332 28.2667ZM65.5999 28.2667C65.5999 29.5333 64.8665 30.4 63.7999 30.4C63.1332 30.4 62.5999 30.1333 62.3332 29.6V31.8667H61.9332V26.2H62.3332V27C62.5999 26.4 63.1332 26.0667 63.8665 26.0667C64.8665 26.1333 65.5999 27 65.5999 28.2667ZM60.1999 30.3333V26.6H57.8665V30.3333H57.4665V26.2667H60.5999V30.3333H60.1999ZM53.7332 26.5333H52.5999C51.9332 26.5333 51.4665 26.8667 51.4665 27.4C51.4665 28 51.8665 28.3333 52.5999 28.3333H53.7332V26.5333ZM54.1332 26.2V30.2667H53.7332V28.6667H52.8665L51.3999 30.2667H50.8665L52.3332 28.6667C51.5999 28.6 51.0665 28.1333 51.0665 27.4C51.0665 26.6667 51.6665 26.2 52.5332 26.2H54.1332ZM49.6665 28.9333V28.1333L48.7999 28.3333C47.9332 28.5333 47.1999 28.6667 47.1999 29.3333C47.1999 29.8667 47.5999 30.1333 48.2665 30.1333C49.0665 30.0667 49.6665 29.5333 49.6665 28.9333ZM50.0665 27.4V30.3333H49.6665V29.7333C49.3999 30.2 48.7999 30.4 48.1999 30.4C47.3999 30.4 46.7332 30.0667 46.7332 29.2667C46.7332 28.3333 47.6665 28.0667 48.6665 27.9333L49.5999 27.7333V27.4C49.5999 26.7333 49.1332 26.4 48.4665 26.4C47.9999 26.4 47.5999 26.5333 47.0665 27.1333L46.7999 26.8667C47.3332 26.2667 47.8665 26.0667 48.4665 26.0667C49.4665 26.1333 50.0665 26.6667 50.0665 27.4ZM41.9332 30.2667L41.9999 29.9333C42.0665 29.9333 42.1999 30 42.3332 30C42.7999 30 42.9332 29.6667 42.9332 28.2667V26.2667H45.6665V30.3333H45.2665V26.6H43.2665V28.3333C43.2665 29.8667 43.0665 30.4 42.2665 30.4C42.1999 30.3333 42.0665 30.3333 41.9332 30.2667ZM41.1999 26.2V30.2667H40.7999V28.2667C40.7999 27.5333 40.7999 27.0667 40.7999 26.6C40.4665 27.0667 40.0665 27.6 39.6665 28.2667L38.3332 30.2H37.9332V26.1333H38.3332V28.3333C38.3332 28.8 38.3332 29.2 38.3332 29.7333C38.6665 29.2 38.9999 28.7333 39.4665 28.0667L40.8665 26.1333H41.1999V26.2ZM35.1999 28.4H34.4665V30.3333H34.0665V28.4H33.3332L31.9999 30.3333H31.5332L33.0665 28.2L31.6665 26.2H32.1332L33.3999 28H34.1332V26.2H34.5332V28H35.2665L36.5332 26.2H36.9999L35.5999 28.2L37.1332 30.3333H36.6665L35.1999 28.4Z" fill="#4D4D4F"/>
</svg>
