<svg width="204" height="50" viewBox="0 0 204 50" fill="none" xmlns="http://www.w3.org/2000/svg">
    <path d="M68.8007 10.5931H63.668V7.42612H77.7558V10.5931H72.623V24.5717H68.8007V10.5931Z" fill="#004A3D"/>
    <path d="M85.0723 24.8994C84.0895 24.8994 83.2158 24.7902 82.4513 24.4625C81.6869 24.1349 81.0316 23.6981 80.4856 23.152C79.9396 22.606 79.5027 21.8415 79.1751 21.0771C78.8475 20.3126 78.7383 19.439 78.7383 18.4561C78.7383 17.4732 78.8475 16.7088 79.1751 15.8351C79.5027 15.0707 79.9396 14.3062 80.4856 13.7602C81.0316 13.2141 81.6869 12.6681 82.4513 12.3405C83.2158 12.0128 84.0895 11.7944 85.0723 11.7944C86.0552 11.7944 86.9289 12.0128 87.6933 12.3405C88.4578 12.6681 89.113 13.2141 89.5498 13.8694C90.0959 14.5246 90.4235 15.1799 90.6419 16.0535C90.8603 16.818 91.0788 17.6916 91.0788 18.5653V18.8929C91.0788 19.0021 91.0788 19.1114 91.0788 19.2206H82.1237C82.1237 20.3126 82.4513 21.0771 82.9974 21.6231C83.5434 22.1692 84.1987 22.3876 85.1815 22.3876C85.8368 22.3876 86.492 22.1692 86.9289 21.8415C87.4749 21.5139 87.6933 21.1863 87.8025 20.7495H90.7511C90.3143 22.2784 89.5498 23.2612 88.567 23.9165C87.6933 24.5717 86.492 24.8994 85.0723 24.8994ZM87.6933 17.0364C87.5841 16.1627 87.2565 15.5075 86.8197 15.0707C86.3828 14.6338 85.8368 14.4154 84.9631 14.4154C84.4171 14.4154 83.9803 14.5246 83.5434 14.743C83.2158 14.9615 82.8882 15.1799 82.6698 15.3983C82.4513 15.6167 82.3421 15.9443 82.2329 16.2719C82.1237 16.5996 82.1237 16.818 82.1237 17.0364H87.6933Z" fill="#004A3D"/>
    <path d="M93.1543 12.122H96.4305V13.7602C96.8674 13.1049 97.4134 12.5589 98.0686 12.3405C98.7239 12.0128 99.3791 11.9036 100.144 11.9036C101.126 11.9036 102 12.122 102.655 12.4497C103.311 12.7773 103.966 13.3233 104.403 13.8694C104.84 14.5246 105.167 15.1799 105.386 15.9443C105.604 16.7088 105.713 17.5824 105.713 18.4561C105.713 19.3298 105.604 20.0942 105.386 20.8587C105.167 21.6231 104.84 22.2784 104.403 22.9336C103.966 23.4796 103.42 24.0257 102.655 24.3533C101.891 24.6809 101.126 24.8993 100.253 24.8993C99.4883 24.8993 98.7239 24.7901 98.1779 24.4625C97.5226 24.1349 96.9766 23.6981 96.5397 23.0428V28.94H93.1543V12.122ZM99.3791 22.3876C99.9252 22.3876 100.362 22.2784 100.799 22.0599C101.126 21.8415 101.454 21.5139 101.672 21.1863C101.891 20.8587 102.109 20.4218 102.219 19.985C102.328 19.5482 102.328 19.0021 102.328 18.4561C102.328 17.91 102.328 17.4732 102.219 17.0364C102.109 16.5996 101.891 16.1627 101.672 15.7259C101.454 15.3983 101.126 15.0707 100.799 14.8522C100.471 14.6338 99.9252 14.5246 99.3791 14.5246C98.8331 14.5246 98.3963 14.6338 97.9594 14.8522C97.6318 15.0707 97.3042 15.3983 97.0858 15.7259C96.8674 16.0535 96.6489 16.4904 96.5397 17.0364C96.4305 17.4732 96.4305 18.0193 96.4305 18.5653C96.4305 19.1113 96.4305 19.5482 96.5397 20.0942C96.6489 20.531 96.7581 20.9679 97.0858 21.2955C97.3042 21.6231 97.6318 21.9507 97.9594 22.1692C98.3963 22.2784 98.8331 22.3876 99.3791 22.3876Z" fill="#004A3D"/>
    <path d="M107.788 12.122H111.064V13.7602C111.501 13.1049 112.047 12.5589 112.702 12.3405C113.358 12.0128 114.013 11.9036 114.777 11.9036C115.76 11.9036 116.634 12.122 117.289 12.4497C117.944 12.7773 118.6 13.3233 119.036 13.8694C119.473 14.5246 119.801 15.1799 120.019 15.9443C120.238 16.7088 120.347 17.5824 120.347 18.4561C120.347 19.3298 120.238 20.0942 120.019 20.8587C119.801 21.6231 119.473 22.2784 119.036 22.9336C118.6 23.4796 118.054 24.0257 117.289 24.3533C116.634 24.6809 115.76 24.8993 114.887 24.8993C114.122 24.8993 113.358 24.7901 112.812 24.4625C112.266 24.1349 111.61 23.6981 111.174 23.0428V28.94H107.788V12.122ZM114.013 22.3876C114.559 22.3876 114.996 22.2784 115.433 22.0599C115.76 21.8415 116.088 21.5139 116.306 21.1863C116.525 20.8587 116.743 20.4218 116.852 19.985C116.962 19.5482 116.962 19.0021 116.962 18.4561C116.962 17.91 116.962 17.4732 116.852 17.0364C116.743 16.5996 116.525 16.1627 116.306 15.7259C116.088 15.3983 115.76 15.0707 115.433 14.8522C115.105 14.6338 114.559 14.5246 114.013 14.5246C113.467 14.5246 113.03 14.6338 112.593 14.8522C112.266 15.0707 111.938 15.3983 111.72 15.7259C111.501 16.0535 111.283 16.4904 111.174 17.0364C111.064 17.4732 111.064 18.0193 111.064 18.5653C111.064 19.1113 111.064 19.5482 111.174 20.0942C111.283 20.531 111.392 20.9679 111.72 21.2955C111.938 21.6231 112.266 21.9507 112.593 22.1692C113.03 22.2784 113.467 22.3876 114.013 22.3876Z" fill="#004A3D"/>
    <path d="M122.422 12.1221H125.698V20.5311L130.394 12.1221H134.326V24.5717H131.049V16.1628L126.353 24.5717H122.422V12.1221Z" fill="#004A3D"/>
    <path d="M139.895 14.7431H135.854V12.1221H147.431V14.7431H143.281V24.5717H139.895V14.7431Z" fill="#004A3D"/>
    <path d="M154.966 24.8994C153.983 24.8994 153.109 24.7902 152.345 24.4625C151.58 24.1349 150.925 23.6981 150.379 23.152C149.833 22.606 149.396 21.9508 149.069 21.0771C148.741 20.3126 148.632 19.3298 148.632 18.3469C148.632 17.364 148.741 16.4904 149.069 15.6167C149.396 14.8522 149.833 14.0878 150.379 13.5418C150.925 12.9957 151.58 12.5589 152.345 12.2313C153.109 11.9036 153.983 11.7944 154.966 11.7944C155.949 11.7944 156.822 11.9036 157.587 12.2313C158.351 12.5589 159.007 12.9957 159.662 13.5418C160.208 14.0878 160.645 14.8522 160.972 15.6167C161.3 16.3812 161.409 17.364 161.409 18.3469C161.409 19.3298 161.3 20.2034 160.972 21.0771C160.645 21.8415 160.208 22.606 159.662 23.152C159.116 23.6981 158.461 24.1349 157.587 24.4625C156.822 24.7902 155.949 24.8994 154.966 24.8994ZM154.966 22.3876C155.512 22.3876 156.058 22.2784 156.386 22.06C156.822 21.8415 157.041 21.5139 157.368 21.1863C157.587 20.8587 157.805 20.4218 157.914 19.8758C158.024 19.439 158.024 18.8929 158.024 18.4561C158.024 17.9101 158.024 17.4732 157.914 17.0364C157.805 16.5996 157.696 16.1627 157.368 15.7259C157.15 15.3983 156.822 15.0707 156.386 14.8522C155.949 14.6338 155.512 14.5246 154.966 14.5246C154.42 14.5246 153.874 14.6338 153.546 14.8522C153.109 15.0707 152.891 15.3983 152.673 15.7259C152.454 16.0535 152.236 16.4904 152.126 17.0364C152.017 17.4732 152.017 18.0193 152.017 18.4561C152.017 19.0021 152.017 19.439 152.126 19.8758C152.236 20.3126 152.345 20.7495 152.673 21.1863C152.891 21.5139 153.219 21.8415 153.546 22.06C153.874 22.2784 154.42 22.3876 154.966 22.3876Z" fill="#004A3D"/>
    <path d="M163.593 12.122H166.869V13.7602C167.306 13.1049 167.852 12.5589 168.507 12.3405C169.162 12.0128 169.818 11.9036 170.582 11.9036C171.565 11.9036 172.439 12.122 173.094 12.4497C173.749 12.7773 174.404 13.3233 174.841 13.8694C175.278 14.5246 175.606 15.1799 175.824 15.9443C176.042 16.7088 176.152 17.5824 176.152 18.4561C176.152 19.3298 176.042 20.0942 175.824 20.8587C175.606 21.6231 175.278 22.2784 174.841 22.9336C174.404 23.4796 173.858 24.0257 173.094 24.3533C172.329 24.6809 171.565 24.8993 170.691 24.8993C169.927 24.8993 169.162 24.7901 168.616 24.4625C167.961 24.1349 167.415 23.6981 166.978 23.0428V28.94H163.593V12.122ZM169.818 22.3876C170.364 22.3876 170.8 22.2784 171.237 22.0599C171.565 21.8415 171.893 21.5139 172.111 21.1863C172.329 20.8587 172.548 20.4218 172.657 19.985C172.766 19.5482 172.766 19.0021 172.766 18.4561C172.766 17.91 172.766 17.4732 172.657 17.0364C172.548 16.5996 172.329 16.1627 172.111 15.7259C171.893 15.3983 171.565 15.0707 171.237 14.8522C170.91 14.6338 170.364 14.5246 169.818 14.5246C169.272 14.5246 168.835 14.6338 168.398 14.8522C168.07 15.0707 167.743 15.3983 167.524 15.7259C167.306 16.0535 167.087 16.4904 166.978 17.0364C166.869 17.4732 166.869 18.0193 166.869 18.5653C166.869 19.1113 166.869 19.5482 166.978 20.0942C167.087 20.531 167.197 20.9679 167.524 21.2955C167.743 21.6231 168.07 21.9507 168.398 22.1692C168.835 22.2784 169.272 22.3876 169.818 22.3876Z" fill="#004A3D"/>
    <path d="M178.227 12.1221H181.503V20.5311L186.199 12.1221H190.13V24.5717H186.854V16.1628L182.158 24.5717H178.227V12.1221Z" fill="#004A3D"/>
    <path d="M195.373 19.8758C194.499 19.7666 193.735 19.3298 193.189 18.5653C192.643 17.9101 192.315 17.0364 192.315 15.9443C192.315 15.3983 192.424 14.8522 192.643 14.4154C192.861 13.9786 193.08 13.5418 193.516 13.2141C193.844 12.8865 194.281 12.5589 194.827 12.3405C195.373 12.1221 195.919 12.0128 196.465 12.0128H204V24.4625H200.615V20.0942H198.977L195.591 24.4625H191.441L195.373 19.8758ZM200.506 14.6338H197.775C197.011 14.6338 196.465 14.743 196.137 15.0707C195.81 15.3983 195.701 15.7259 195.701 16.1627C195.701 16.5996 195.81 17.0364 196.137 17.364C196.465 17.6916 197.011 17.8009 197.775 17.8009H200.506V14.6338Z" fill="#004A3D"/>
    <path d="M68.1458 42.7002L63.7775 37.2398H67.4905L71.5312 42.4818V37.2398H74.6983V42.4818L78.7389 37.2398H82.452L77.9745 42.591L82.998 49.6895H79.0666L75.4627 44.3383L74.6983 45.3212V49.6895H71.5312V45.5396L70.6576 44.3383L67.1629 49.6895H63.2314L68.1458 42.7002Z" fill="#004A3D"/>
    <path d="M84.1992 37.2398H87.4754V45.6488L92.0622 37.2398H95.9937V49.6895H92.7174V41.2805L88.0215 49.6895H84.1992V37.2398Z" fill="#004A3D"/>
    <path d="M103.638 49.9079C102.874 49.9079 102.11 49.7987 101.454 49.6895C100.799 49.5803 100.144 49.2527 99.5977 48.925C99.0517 48.5974 98.6149 48.1606 98.2872 47.6146C97.9596 47.0685 97.8504 46.4133 97.7412 45.6488H101.017C101.127 46.3041 101.345 46.8501 101.782 47.1777C102.219 47.5054 102.874 47.7238 103.638 47.7238C104.403 47.7238 104.949 47.6146 105.277 47.2869C105.604 46.9593 105.823 46.5225 105.823 46.0857C105.823 45.5396 105.604 45.212 105.386 44.8844C105.058 44.5567 104.512 44.4475 103.748 44.4475H102.437V42.2634H103.311C104.075 42.2634 104.621 42.1542 105.058 41.9358C105.495 41.7173 105.713 41.2805 105.713 40.6253C105.713 40.2976 105.604 39.97 105.277 39.6424C104.949 39.3148 104.512 39.2056 103.748 39.2056C103.092 39.2056 102.546 39.3148 102.11 39.5332C101.673 39.7516 101.454 40.1884 101.345 40.8437H98.178C98.2873 40.0792 98.3965 39.5332 98.7241 38.9871C99.0517 38.4411 99.4885 38.1135 99.9254 37.7859C100.471 37.4582 101.017 37.2398 101.673 37.1306C102.328 37.0214 102.983 36.9122 103.748 36.9122C105.386 36.9122 106.696 37.1306 107.57 37.6767C108.444 38.2227 108.88 39.0964 108.88 40.1884C108.88 40.5161 108.771 40.8437 108.662 41.1713C108.553 41.4989 108.334 41.7173 108.116 42.045C107.898 42.3726 107.679 42.4818 107.351 42.591C107.133 42.7002 106.805 42.8094 106.587 42.9186C106.915 42.9186 107.133 43.0278 107.461 43.137C107.788 43.2462 108.007 43.3555 108.334 43.6831C108.553 43.9015 108.771 44.2291 108.99 44.5567C109.208 44.8844 109.208 45.3212 109.208 45.8672C109.208 46.5225 109.099 47.1777 108.771 47.6146C108.444 48.1606 108.116 48.4882 107.57 48.8158C107.024 49.1435 106.478 49.3619 105.713 49.5803C105.277 49.9079 104.512 49.9079 103.638 49.9079Z" fill="#004A3D"/>
    <path d="M111.61 37.2398H114.996V41.7174H119.801V37.2398H123.186V49.6895H119.801V44.4475H114.996V49.6895H111.61V37.2398Z" fill="#004A3D"/>
    <path d="M125.808 37.2398H129.084V45.6488L133.78 37.2398H137.602V49.6895H134.326V41.2805L129.739 49.6895H125.808V37.2398Z" fill="#004A3D"/>
    <path d="M32.1071 35.1649L0 3.0578V35.1649H32.1071Z" fill="#38AC57"/>
    <path d="M3.05762 0L22.6058 19.6574V0H3.05762Z" fill="#38AC57"/>
    <path d="M26.9746 23.9165L38.223 35.1649H49.6898V0H26.9746V23.9165Z" fill="#38AC57"/>
    <path d="M25.7733 39.5332L15.5078 49.6895H49.6898V39.5332H25.7733Z" fill="#38AC57"/>
    <path d="M19.6574 39.5332H0V49.6895H9.39186L19.6574 39.5332Z" fill="#38AC57"/>
</svg>
