<svg width="128" height="31" viewBox="0 0 128 31" fill="none" xmlns="http://www.w3.org/2000/svg">
    <path d="M42.6 9.60552L41.2804 5.9545L39.9608 9.60552H42.6ZM45.6728 12.6317H43.6165L43.0943 11.1956H39.4619L38.9303 12.6317H36.874L40.152 4.14531H42.4135L45.6728 12.6317Z" fill="#4A4A49"/>
    <path d="M50.1819 8.02481C50.5456 8.02481 50.844 7.92222 51.0772 7.7124C51.3103 7.50257 51.4269 7.22746 51.4269 6.87774C51.4269 6.53269 51.3103 6.25292 51.0772 6.04309C50.844 5.83326 50.5456 5.73068 50.1819 5.73068H48.2655V8.02014H50.1819V8.02481ZM48.2655 12.6317H46.4609V4.14531H50.4244C51.315 4.14531 52.0097 4.40643 52.5133 4.92867C53.0169 5.45091 53.2687 6.09905 53.2687 6.88241C53.2687 7.65644 53.0169 8.30458 52.5087 8.83148C52.0004 9.35839 51.3056 9.6195 50.4244 9.6195H48.2655V12.6317Z" fill="#4A4A49"/>
    <path d="M58.1506 8.82682H56.1922V11.0417H58.1506C58.505 11.0417 58.7941 10.9391 59.0226 10.7339C59.2464 10.5288 59.3583 10.263 59.3583 9.93192C59.3583 9.59153 59.2464 9.32575 59.0226 9.12524C58.7941 8.9294 58.505 8.82682 58.1506 8.82682ZM54.3877 4.14531H60.5753V5.73534H56.1922V7.23678H58.3884C59.2604 7.23678 59.9458 7.49324 60.4448 8.01082C60.9437 8.5284 61.1955 9.16721 61.1955 9.93192C61.1955 10.6966 60.9437 11.3354 60.4448 11.853C59.9458 12.3706 59.2604 12.627 58.3884 12.627H54.3877V4.14531Z" fill="#4A4A49"/>
    <path d="M68.3109 12.6317H62.3145V4.14531H68.3109V5.73534H64.119V7.53054H68.2223V9.12058H64.119V11.0417H68.3109V12.6317Z" fill="#4A4A49"/>
    <path d="M76.9742 12.6317H74.75L72.1854 9.23715L71.5233 10.0252V12.6317H69.7188V4.14531H71.5233V7.93621L74.5215 4.14531H76.7457L73.3791 8.12739L76.9742 12.6317Z" fill="#4A4A49"/>
    <path d="M79.3568 10.3935C79.8277 10.9204 80.4479 11.1815 81.2173 11.1815C81.9866 11.1815 82.6115 10.9204 83.0824 10.3935C83.558 9.86661 83.7958 9.19982 83.7958 8.39314C83.7958 7.58647 83.558 6.91968 83.0824 6.39744C82.6068 5.87054 81.9866 5.60942 81.2173 5.60942C80.4479 5.60942 79.8277 5.87054 79.3568 6.39744C78.8858 6.92434 78.6527 7.59113 78.6527 8.39314C78.6527 9.19982 78.8858 9.86661 79.3568 10.3935ZM81.2173 12.7856C79.9396 12.7856 78.8812 12.3706 78.0465 11.5452C77.2119 10.7199 76.7969 9.6661 76.7969 8.39781C76.7969 7.12485 77.2119 6.0757 78.0465 5.25038C78.8812 4.42505 79.935 4.01006 81.2173 4.01006C82.5042 4.01006 83.5627 4.42039 84.3973 5.24571C85.232 6.06638 85.647 7.12018 85.647 8.40247C85.647 9.68475 85.2273 10.7339 84.3973 11.5592C83.5627 12.3752 82.5042 12.7856 81.2173 12.7856Z" fill="#4A4A49"/>
    <path d="M91.0512 11.065C91.3916 11.065 91.6574 10.9764 91.8532 10.8039C92.0491 10.6313 92.147 10.3889 92.147 10.0858C92.147 9.80602 92.0491 9.56821 91.8532 9.3817C91.6574 9.19052 91.3916 9.09726 91.0512 9.09726H88.7244V11.0697H91.0512V11.065ZM90.9859 7.54453C91.289 7.54453 91.5315 7.4606 91.7087 7.28808C91.8859 7.12021 91.9745 6.8964 91.9745 6.62595C91.9745 6.3555 91.8812 6.13169 91.6994 5.95916C91.5175 5.78664 91.2797 5.69804 90.9813 5.69804H88.7198V7.54453H90.9859ZM91.5175 12.6317H86.9199V4.14531H91.3776C92.147 4.14531 92.7485 4.35514 93.1728 4.7748C93.6018 5.19445 93.8163 5.70737 93.8163 6.30888C93.8163 6.82645 93.6764 7.2601 93.3966 7.60515C93.1169 7.95486 92.7718 8.16936 92.3568 8.25329C92.8138 8.32323 93.2008 8.55637 93.5132 8.95272C93.8256 9.35372 93.9841 9.81534 93.9841 10.3376C93.9841 10.9997 93.7697 11.5453 93.336 11.9789C92.9024 12.4172 92.2962 12.6317 91.5175 12.6317Z" fill="#4A4A49"/>
    <path d="M99.4445 12.7856C98.1576 12.7856 97.0851 12.3752 96.2225 11.5592C95.3645 10.7386 94.9355 9.68475 94.9355 8.39781C94.9355 7.10619 95.3645 6.05705 96.2225 5.23639C97.0805 4.41572 98.1576 4.01006 99.4445 4.01006C101.03 4.01006 102.21 4.70016 102.988 6.08503L101.44 6.84974C101.254 6.49536 100.979 6.19694 100.62 5.96379C100.261 5.73065 99.8689 5.61408 99.4445 5.61408C98.6752 5.61408 98.0363 5.8752 97.5374 6.4021C97.0385 6.929 96.7867 7.59579 96.7867 8.39781C96.7867 9.20448 97.0385 9.87127 97.5374 10.3982C98.0363 10.9251 98.6705 11.1862 99.4445 11.1862C99.8689 11.1862 100.261 11.0696 100.62 10.8411C100.979 10.6127 101.254 10.3142 101.44 9.95054L102.988 10.7013C102.186 12.0908 101.002 12.7856 99.4445 12.7856Z" fill="#4A4A49"/>
    <path d="M111.321 12.6317H109.102L106.532 9.23715L105.875 10.0252V12.6317H104.07V4.14531H105.875V7.93621L108.873 4.14531H111.093L107.726 8.12739L111.321 12.6317Z" fill="#4A4A49"/>
    <path d="M116.977 9.60552L115.657 5.9545L114.338 9.60552H116.977ZM120.05 12.6317H117.993L117.471 11.1956H113.839L113.307 12.6317H111.251L114.529 4.14531H116.79L120.05 12.6317Z" fill="#4A4A49"/>
    <path d="M123.631 8.02481H125.524V5.73534H123.631C123.258 5.73534 122.955 5.83793 122.717 6.04776C122.479 6.25758 122.363 6.53269 122.363 6.88241C122.363 7.23212 122.479 7.50723 122.717 7.71706C122.955 7.92222 123.258 8.02481 123.631 8.02481ZM122.54 12.6317H120.47L122.377 9.40035C121.859 9.27912 121.421 9.00401 121.062 8.57502C120.703 8.14138 120.521 7.57717 120.521 6.88241C120.521 6.07573 120.777 5.41827 121.29 4.91002C121.803 4.40177 122.493 4.14531 123.37 4.14531H127.333V12.6317H125.529V9.61484H124.219L122.54 12.6317Z" fill="#4A4A49"/>
    <path d="M40.6839 26.4664C39.9285 26.4664 39.2384 26.3405 38.6136 26.084C37.9888 25.8276 37.5131 25.5012 37.1914 25.1048L38.1333 23.8971C38.4131 24.1956 38.7861 24.4287 39.2571 24.6012C39.728 24.7738 40.1756 24.8623 40.6093 24.8623C41.1595 24.8623 41.5931 24.7644 41.9056 24.5639C42.218 24.3634 42.3765 24.1023 42.3765 23.7806C42.3765 23.1278 41.7563 22.8014 40.5114 22.8014H38.7954V21.2113H40.5114C41.0383 21.2113 41.4533 21.1367 41.7703 20.9828C42.0827 20.829 42.2413 20.6052 42.2413 20.3067C42.2413 19.985 42.0781 19.7379 41.7563 19.5607C41.4346 19.3835 41.0196 19.2996 40.5114 19.2996C39.5881 19.2996 38.8234 19.5933 38.2126 20.1762L37.3033 19.0478C37.6577 18.6421 38.1333 18.3157 38.7208 18.0686C39.3083 17.8214 39.9658 17.7002 40.6839 17.7002C41.6817 17.7002 42.4931 17.91 43.1086 18.325C43.7287 18.74 44.0365 19.2996 44.0365 20.0036C44.0365 20.5119 43.8546 20.9409 43.4909 21.2813C43.1272 21.6263 42.6936 21.8455 42.1947 21.9341C42.6843 21.9854 43.1365 22.1905 43.5469 22.5496C43.9572 22.9086 44.1624 23.3842 44.1624 23.9671C44.1624 24.6991 43.836 25.296 43.1832 25.7623C42.5304 26.2332 41.7004 26.4664 40.6839 26.4664Z" fill="#4A4A49"/>
    <path d="M50.349 23.2863L49.0295 19.6353L47.7099 23.2863H50.349ZM53.4219 26.3125H51.3655L50.8433 24.8763H47.2109L46.6794 26.3125H44.623L47.901 17.8261H50.1625L53.4219 26.3125Z" fill="#4A4A49"/>
    <path d="M57.8801 26.4664C56.5931 26.4664 55.5207 26.056 54.658 25.24C53.8001 24.4194 53.3711 23.3656 53.3711 22.0786C53.3711 20.787 53.8001 19.7332 54.658 18.9172C55.516 18.0965 56.5931 17.6909 57.8801 17.6909C59.4654 17.6909 60.6452 18.381 61.4238 19.7658L59.8758 20.5305C59.6893 20.1762 59.4142 19.8777 59.0551 19.6446C58.6961 19.4115 58.3044 19.2949 57.8801 19.2949C57.1107 19.2949 56.4719 19.556 55.973 20.0829C55.474 20.6098 55.2222 21.2766 55.2222 22.0833C55.2222 22.8899 55.474 23.5567 55.973 24.079C56.4719 24.6059 57.106 24.867 57.8801 24.867C58.3044 24.867 58.6961 24.7504 59.0551 24.5219C59.4142 24.2935 59.6893 23.995 59.8758 23.6313L61.4238 24.3821C60.6218 25.7716 59.4421 26.4664 57.8801 26.4664Z" fill="#4A4A49"/>
    <path d="M66.2779 26.3125H64.464V19.4161H61.9834V17.8261H68.7445V19.4161H66.2779V26.3125Z" fill="#4A4A49"/>
    <path d="M73.9108 23.2863L72.5912 19.6353L71.2716 23.2863H73.9108ZM76.9883 26.3125H74.9319L74.4097 24.8763H70.7773L70.2458 26.3125H68.1895L71.4674 17.8261H73.7289L76.9883 26.3125Z" fill="#4A4A49"/>
    <path d="M81.903 24.7504C82.2434 24.7504 82.5092 24.6618 82.705 24.4893C82.9008 24.3168 82.9988 24.0743 82.9988 23.7712C82.9988 23.4914 82.9008 23.2536 82.705 23.0671C82.5092 22.8806 82.2434 22.7827 81.903 22.7827H79.5762V24.7551H81.903V24.7504ZM81.8377 21.2253C82.1408 21.2253 82.3833 21.1414 82.5605 20.9688C82.7376 20.801 82.8262 20.5772 82.8262 20.3067C82.8262 20.0363 82.733 19.8124 82.5511 19.6399C82.3693 19.4674 82.1315 19.3788 81.8331 19.3788H79.5716V21.2253H81.8377ZM82.3739 26.3125H77.7764V17.8261H82.2341C83.0034 17.8261 83.6049 18.0359 84.0293 18.4556C84.4582 18.8752 84.6727 19.3881 84.6727 19.9896C84.6727 20.5072 84.5328 20.9409 84.2531 21.2859C83.9733 21.631 83.6283 21.8501 83.2133 21.934C83.6702 22.004 84.0572 22.2371 84.3696 22.6335C84.6821 23.0298 84.8406 23.4961 84.8406 24.0183C84.8406 24.6805 84.6261 25.226 84.1925 25.6597C83.7588 26.098 83.1526 26.3125 82.3739 26.3125Z" fill="#4A4A49"/>
    <path d="M91.0238 23.2863L89.7043 19.6353L88.3847 23.2863H91.0238ZM94.0967 26.3125H92.0403L91.5181 24.8763H87.8857L87.3542 26.3125H85.2979L88.5758 17.8261H90.8373L94.0967 26.3125Z" fill="#4A4A49"/>
    <path d="M7.87282 3.3233L4.13184 4.76732L8.25905 15.4596L12 14.0155L7.87282 3.3233Z" fill="#EC6608"/>
    <path d="M12.0861 16.6277L1.62734 11.9789L0 15.6532L10.4635 20.2974L11.079 18.9079L12.0861 16.6277Z" fill="#EC6608"/>
    <path d="M3.31543 22.5309L13.9934 18.409L15.4342 22.1532L4.75625 26.2799L3.31543 22.5309Z" fill="#BCCF00"/>
    <path d="M20.2645 19.9477L19.1128 19.4348L16.5995 18.3157L11.96 28.7978L15.625 30.4251L19.5138 21.645L20.2645 19.9477Z" fill="#BCCF00"/>
    <path d="M21.7013 10.9204L19.9108 10.1277L19.3139 11.4753L18.2881 13.7974L28.7469 18.4463L30.3742 14.7719L21.7013 10.9204Z" fill="#EC6608"/>
    <path d="M22.4933 27.1052L18.376 16.4086L22.1156 14.9631L26.2329 25.6597L22.4933 27.1052Z" fill="#EC6608"/>
    <path d="M27.0582 7.89425L16.3803 12.0162L14.9395 8.26728L25.6127 4.14531L27.0582 7.89425Z" fill="#BCCF00"/>
    <path d="M18.4135 1.62734L13.7739 12.1048L10.743 10.7619L10.3887 9.8433L14.7484 0L18.4135 1.62734Z" fill="#BCCF00"/>
</svg>
