<svg width="20" height="16" viewBox="0 0 20 16" fill="none" xmlns="http://www.w3.org/2000/svg">
    <path d="M19.1205 6.88472C18.5084 10.6008 17.8432 14.663 17.8432 14.663C17.8432 14.663 17.7406 15.8029 16.8719 16C15.9413 15.9862 15.0419 15.6726 14.3156 15.1087C14.1103 14.9596 10.4801 12.7313 9.15153 11.6412C9.01603 11.5526 8.90591 11.4321 8.83145 11.2911C8.757 11.1501 8.72064 10.9931 8.72576 10.8347C8.73088 10.6764 8.77732 10.5219 8.86075 10.3857C8.94417 10.2495 9.06186 10.1359 9.20283 10.0557C11.0239 8.43725 12.8134 6.78577 14.5703 5.10211C15.1842 4.50734 15.7981 3.12068 13.2417 4.80558C9.6115 7.23267 6.03259 9.51063 6.03259 9.51063C5.66399 9.67175 5.26564 9.7592 4.86136 9.76774C4.45708 9.77628 4.05517 9.70574 3.67967 9.56034C2.14585 9.11469 0.357284 8.51991 0.357284 8.51991C0.357284 8.51991 -0.870478 7.77774 1.22592 6.97728C1.22592 6.97728 10.0715 3.46006 13.1391 2.22252C14.3156 1.72716 18.3031 0.141673 18.3031 0.141673C18.3031 0.141673 20.1448 -0.552516 19.9909 1.13239C19.9396 1.83343 19.5309 4.26052 19.1205 6.88472Z" fill="#35AB52"/>
</svg>
